<?xml version="1.0" standalone="no"?>
<!DOCTYPE svg PUBLIC "-//W3C//DTD SVG 20010904//EN"
 "http://www.w3.org/TR/2001/REC-SVG-20010904/DTD/svg10.dtd">
<svg version="1.0" xmlns="http://www.w3.org/2000/svg"
 width="668.000000pt" height="480.000000pt" viewBox="0 0 668.000000 480.000000"
 preserveAspectRatio="xMidYMid meet">

<g transform="translate(0.000000,480.000000) scale(0.100000,-0.100000)"
fill="#000000" stroke="none">
<path d="M0 2400 l0 -2400 3340 0 3340 0 0 2400 0 2400 -3340 0 -3340 0 0
-2400z m1086 2196 c49 -70 96 -138 104 -150 8 -11 86 -124 174 -251 88 -126
193 -279 234 -340 41 -60 114 -166 162 -235 153 -221 536 -778 726 -1057 l117
-172 -55 -83 c-73 -110 -751 -1177 -767 -1205 -6 -13 -8 -23 -4 -23 4 -1 188
-1 407 0 386 0 426 3 426 30 0 10 148 255 283 468 53 84 97 156 98 160 1 13
134 206 144 209 18 5 511 -950 499 -968 -9 -15 -125 145 -364 503 -69 103
-129 186 -133 185 -9 -3 -28 -36 -137 -242 -61 -116 -74 -141 -146 -270 -76
-138 -116 -212 -131 -242 l-17 -33 -380 1 c-210 1 -499 4 -643 8 l-263 6 125
180 c68 99 161 234 207 300 46 65 135 196 199 290 230 340 314 462 402 588 60
86 87 134 84 147 -3 10 -153 251 -333 534 -181 284 -339 533 -352 553 -13 21
-40 64 -60 95 -20 31 -75 118 -122 192 -47 74 -199 315 -337 535 -139 220
-253 408 -253 418 0 22 1 21 106 -131z m3546 -696 c135 0 198 -3 198 -11 0
-13 -58 -100 -250 -374 -81 -115 -198 -286 -262 -380 -63 -93 -157 -232 -209
-308 -244 -356 -288 -423 -288 -434 -1 -7 77 -135 172 -285 889 -1399 1289
-2037 1285 -2050 -6 -16 -1 -23 -661 934 -103 150 -253 368 -333 483 -80 116
-188 273 -240 350 -52 77 -134 196 -181 265 -217 317 -205 297 -194 319 10 18
126 200 637 997 67 104 136 216 154 247 l32 57 -408 -2 -409 -3 -38 -60 c-21
-33 -99 -159 -174 -280 -259 -419 -316 -510 -328 -523 -14 -15 -18 -8 -207
348 -118 220 -299 593 -296 608 3 18 126 -151 354 -488 121 -179 138 -199 148
-183 7 10 46 81 86 158 40 77 85 163 100 190 15 28 69 127 120 220 51 94 99
181 107 194 l16 24 435 -6 c239 -4 525 -7 634 -7z"/>
</g>
</svg>
